<svg aria-hidden="true" style="width:0;height:0;position:absolute;overflow:hidden" xmlns="http://www.w3.org/2000/svg"><defs><symbol id="icon-youtube" viewBox="0 0 32 32"><path d="m18.565 15.733-3.594-1.677c-.314-.146-.571.018-.571.365v3.158c0 .347.258.51.571.365l3.592-1.677c.315-.147.315-.387.002-.534zM16 .64C7.517.64.64 7.517.64 16S7.517 31.36 16 31.36 31.36 24.483 31.36 16 24.483.64 16 .64zm0 21.6c-7.862 0-8-.709-8-6.24s.138-6.24 8-6.24 8 .709 8 6.24-.138 6.24-8 6.24z"/></symbol><symbol id="icon-twitter" viewBox="0 0 32 32"><path d="M16 .64C7.517.64.64 7.517.64 16S7.517 31.36 16 31.36 31.36 24.483 31.36 16 24.483.64 16 .64zm6.248 12.582c.006.131.008.262.008.39 0 4-3.042 8.61-8.606 8.61h-.014a8.492 8.492 0 0 1-4.655-1.38l.033.02c.235.029.477.04.722.04h.014a6.038 6.038 0 0 0 3.756-1.304l-.013.01a3.034 3.034 0 0 1-2.819-2.078l-.006-.021a3.06 3.06 0 0 0 1.386-.058l-.021.005a3.032 3.032 0 0 1-2.427-2.966v-.037c.408.226.875.363 1.371.379a3.025 3.025 0 0 1-.928-4.055l-.008.014a8.592 8.592 0 0 0 6.214 3.162l.021.001a3.026 3.026 0 0 1 5.154-2.762l.002.002a6.059 6.059 0 0 0 1.947-.75l-.027.015a3.06 3.06 0 0 1-1.316 1.668l-.013.008a6.06 6.06 0 0 0 1.776-.494l-.038.015a6.2 6.2 0 0 1-1.491 1.554l-.017.012z"/></symbol><symbol id="icon-pinterest" viewBox="0 0 32 32"><path d="M16 .64C7.517.64.64 7.517.64 16S7.517 31.36 16 31.36 31.36 24.483 31.36 16 24.483.64 16 .64zm1.051 19c-.986-.075-1.398-.563-2.17-1.03-.424 2.226-.942 4.36-2.478 5.475-.475-3.366.694-5.891 1.238-8.574-.926-1.56.11-4.698 2.066-3.926 2.405.954-2.083 5.8.93 6.406 3.146.63 4.43-5.459 2.48-7.437-2.819-2.859-8.203-.066-7.541 4.027.16 1 1.195 1.304.413 2.685-1.803-.4-2.342-1.822-2.272-3.718.11-3.104 2.789-5.278 5.474-5.578 3.397-.378 6.584 1.246 7.026 4.443.494 3.606-1.534 7.509-5.165 7.227z"/></symbol><symbol id="icon-instagram" viewBox="0 0 32 32"><path d="M20.8 16a4.8 4.8 0 1 1-9.6 0c0-.274.029-.541.078-.8H9.6v6.395c0 .445.36.805.805.805h11.192a.805.805 0 0 0 .803-.805V15.2h-1.678c.05.259.078.526.078.8zM16 19.2a3.2 3.2 0 0 0 0-6.4 3.2 3.2 0 0 0 0 6.4zm3.84-6.56h1.918a.482.482 0 0 0 .482-.48v-1.918a.482.482 0 0 0-.482-.482H19.84a.482.482 0 0 0-.482.482v1.918c.002.264.218.48.482.48zM16 .64C7.517.64.64 7.517.64 16S7.517 31.36 16 31.36 31.36 24.483 31.36 16 24.483.64 16 .64zm8 21.582C24 23.2 23.2 24 22.222 24H9.777c-.978 0-1.778-.8-1.778-1.778V9.777c0-.978.8-1.778 1.778-1.778h12.445c.978 0 1.778.8 1.778 1.778v12.445z"/></symbol><symbol id="icon-facebook" viewBox="0 0 32 32"><path d="M16 .64C7.517.64.64 7.517.64 16S7.517 31.36 16 31.36 31.36 24.483 31.36 16 24.483.64 16 .64zm3.638 10.614h-2.309c-.274 0-.578.36-.578.838v1.667h2.888l-.437 2.378h-2.451v7.138h-2.725v-7.138h-2.472v-2.378h2.472v-1.398c0-2.006 1.392-3.637 3.302-3.637h2.309v2.53z"/></symbol></defs></svg>